ply
format ascii 1.0
comment VCGLIB generated
element vertex 12
property float x
property float y
property float z
element face 16
property list uchar int vertex_indices
end_header
-1.22891 1.15755 -0.247403 
-2.22891 1.15755 -0.247403 
-1.22891 0.157547 -0.247403 
-2.22891 0.157547 -0.247403 
-1.22891 1.15755 -1.2474 
-2.22891 1.15755 -1.2474 
-1.22891 0.157547 -1.2474 
-2.22891 0.157547 -1.2474 
1 1 1 
-1 1 -1 
-1 -1 1 
1 -1 -1 
3 0 1 2 
3 3 2 1 
3 0 2 4 
3 6 4 2 
3 0 4 1 
3 5 1 4 
3 7 5 6 
3 4 6 5 
3 7 6 3 
3 2 3 6 
3 7 3 5 
3 1 5 3 
3 8 9 10 
3 8 10 11 
3 8 11 9 
3 11 10 9 
