ply
format ascii 1.0
comment VCGLIB generated
element vertex 400
property float x
property float y
property float z
element face 582
property list uchar int vertex_indices
end_header
44.5 -25 0.0499981 
-44.5 -25 -0.0499981 
-38.9375 -25 -0.0499983 
-33.375 -25 -0.0499985 
-27.8125 -25 -0.0499988 
-22.25 -25 -0.049999 
-33.375 -25 -0.0499985 
38.9375 -25 -0.0500017 
44.5 -25 -0.0500019 
22.25 -25 -0.050001 
27.8125 -25 -0.0500012 
33.375 -25 -0.0500015 
33.375 -25 -0.0500015 
-22.25 -25 -0.049999 
-16.6875 -25 -0.0499993 
-11.125 -25 -0.0499995 
-5.5625 -25 -0.0499998 
-16.6875 -25 -0.0499993 
22.25 -25 -0.050001 
5.5625 -25 -0.0500002 
11.125 -25 -0.0500005 
16.6875 -25 -0.0500007 
16.6875 -25 -0.0500007 
-5.5625 -25 -0.0499998 
-1.09497e-06 -25 -0.05 
-44.5 -25 0.0500019 
-44.5 25 0.0500019 
44.5 25 -0.0500019 
38.9375 25 -0.0500017 
33.375 25 -0.0500015 
27.8125 25 -0.0500012 
22.25 25 -0.050001 
33.375 25 -0.0500015 
-38.9375 25 -0.0499983 
-44.5 25 -0.0499981 
-22.25 25 -0.049999 
-27.8125 25 -0.0499988 
-33.375 25 -0.0499985 
-33.375 25 -0.0499985 
22.25 25 -0.050001 
16.6875 25 -0.0500007 
11.125 25 -0.0500005 
5.5625 25 -0.0500002 
16.6875 25 -0.0500007 
-22.25 25 -0.049999 
-5.5625 25 -0.0499998 
-11.125 25 -0.0499995 
-16.6875 25 -0.0499993 
-16.6875 25 -0.0499993 
5.5625 25 -0.0500002 
1.09059e-06 25 -0.05 
-5.5625 25 -0.0499998 
44.5 25 0.0499981 
-44.5 25 0.0500019 
-44.5 -25 -0.0499981 
-44.5 -25 0.0500019 
-44.5 -21.875 -0.0499981 
-44.5 25 -0.0499981 
-44.5 21.875 -0.0499981 
-44.5 18.75 -0.0499981 
-44.5 15.625 -0.0499981 
-44.5 12.5 -0.0499981 
-44.5 18.75 -0.0499981 
-44.5 -18.75 -0.0499981 
-44.5 -9.375 -0.0499981 
-44.5 -12.5 -0.0499981 
-44.5 -15.625 -0.0499981 
-44.5 -15.625 -0.0499981 
-44.5 12.5 -0.0499981 
-44.5 9.375 -0.0499981 
-44.5 6.25 -0.0499981 
-44.5 3.125 -0.0499981 
-44.5 9.375 -0.0499981 
-44.5 -9.375 -0.0499981 
-44.5 1.94516e-06 -0.0499981 
-44.5 -3.125 -0.0499981 
-44.5 -6.25 -0.0499981 
-44.5 -6.25 -0.0499981 
-44.5 3.125 -0.0499981 
-44.5 1.94516e-06 -0.0499981 
-44.5 -25 -0.0499981 
-38.9375 -21.875 -0.0499983 
-38.9375 -25 -0.0499983 
44.5 25 -0.0500019 
38.9375 21.875 -0.0500017 
38.9375 25 -0.0500017 
44.5 21.875 -0.0500019 
44.5 25 -0.0500019 
44.5 -25 0.0499981 
44.5 -25 -0.0500019 
44.5 -21.875 -0.0500019 
44.5 -18.75 -0.0500019 
44.5 -15.625 -0.0500019 
44.5 -12.5 -0.0500019 
44.5 -18.75 -0.0500019 
44.5 18.75 -0.0500019 
44.5 9.375 -0.0500019 
44.5 12.5 -0.0500019 
44.5 15.625 -0.0500019 
44.5 15.625 -0.0500019 
44.5 -12.5 -0.0500019 
44.5 -9.375 -0.0500019 
44.5 -6.25 -0.0500019 
44.5 -3.125 -0.0500019 
44.5 -9.375 -0.0500019 
44.5 9.375 -0.0500019 
44.5 -1.94516e-06 -0.0500019 
44.5 3.125 -0.0500019 
44.5 6.25 -0.0500019 
44.5 6.25 -0.0500019 
44.5 -3.125 -0.0500019 
44.5 -1.94516e-06 -0.0500019 
44.5 25 0.0499981 
-44.5 25 0.0500019 
44.5 -25 0.0499981 
44.5 25 0.0499981 
-44.5 -25 0.0500019 
1.09059e-06 25 -0.05 
-5.5625 21.875 -0.0499998 
-5.5625 25 -0.0499998 
9.54002e-07 21.875 -0.05 
-2.18557e-09 0 -0.05 
-5.5625 -3.125 -0.0499998 
-5.5625 2.43145e-07 -0.0499998 
-1.09497e-06 -25 -0.05 
5.5625 -21.875 -0.0500002 
5.5625 -25 -0.0500002 
-9.58373e-07 -21.875 -0.05 
5.5625 3.125 -0.0500002 
5.5625 -2.43145e-07 -0.0500002 
22.25 -9.72578e-07 -0.050001 
27.8125 3.125 -0.0500012 
27.8125 -1.21572e-06 -0.0500012 
22.25 3.125 -0.050001 
22.25 12.5 -0.050001 
27.8125 15.625 -0.0500012 
27.8125 12.5 -0.0500012 
22.25 -12.5 -0.050001 
22.25 -9.375 -0.050001 
27.8125 -9.375 -0.0500012 
16.6875 -12.5 -0.0500007 
-5.48578e-07 -12.5 -0.05 
-4.1198e-07 -9.375 -0.05 
5.5625 -9.375 -0.0500002 
22.25 -25 -0.050001 
27.8125 -21.875 -0.0500012 
27.8125 -25 -0.0500012 
22.25 -21.875 -0.050001 
27.8125 -12.5 -0.0500012 
-22.25 9.72578e-07 -0.049999 
-27.8125 -3.125 -0.0499988 
-27.8125 1.21572e-06 -0.0499988 
-22.25 -3.125 -0.049999 
-22.25 -12.5 -0.049999 
-27.8125 -15.625 -0.0499988 
-27.8125 -12.5 -0.0499988 
-22.25 12.5 -0.049999 
-22.25 9.375 -0.049999 
-27.8125 9.375 -0.0499988 
-16.6875 12.5 -0.0499993 
5.44206e-07 12.5 -0.05 
4.07608e-07 9.375 -0.05 
-5.5625 9.375 -0.0499998 
-22.25 25 -0.049999 
-27.8125 21.875 -0.0499988 
-27.8125 25 -0.0499988 
-22.25 21.875 -0.049999 
-27.8125 12.5 -0.0499988 
22.25 25 -0.050001 
16.6875 21.875 -0.0500007 
16.6875 25 -0.0500007 
22.25 21.875 -0.050001 
16.6875 9.375 -0.0500007 
16.6875 12.5 -0.0500007 
-22.25 -25 -0.049999 
-16.6875 -21.875 -0.0499993 
-16.6875 -25 -0.0499993 
-22.25 -21.875 -0.049999 
-16.6875 -9.375 -0.0499993 
-16.6875 -12.5 -0.0499993 
-11.125 -12.5 -0.0499995 
-5.5625 -9.375 -0.0499998 
-5.5625 -12.5 -0.0499998 
-11.125 -9.375 -0.0499995 
-11.125 -6.25 -0.0499995 
-5.5625 -6.25 -0.0499998 
-11.125 -18.75 -0.0499995 
-11.125 -15.625 -0.0499995 
-5.5625 -15.625 -0.0499998 
-16.6875 -18.75 -0.0499993 
-22.25 -18.75 -0.049999 
-22.25 -15.625 -0.049999 
-16.6875 -15.625 -0.0499993 
-11.125 -25 -0.0499995 
-5.5625 -21.875 -0.0499998 
-5.5625 -25 -0.0499998 
-11.125 -21.875 -0.0499995 
-5.5625 -18.75 -0.0499998 
11.125 12.5 -0.0500005 
5.5625 9.375 -0.0500002 
5.5625 12.5 -0.0500002 
11.125 9.375 -0.0500005 
11.125 6.25 -0.0500005 
5.5625 6.25 -0.0500002 
11.125 18.75 -0.0500005 
11.125 15.625 -0.0500005 
5.5625 15.625 -0.0500002 
16.6875 18.75 -0.0500007 
22.25 18.75 -0.050001 
22.25 15.625 -0.050001 
16.6875 15.625 -0.0500007 
11.125 25 -0.0500005 
5.5625 21.875 -0.0500002 
5.5625 25 -0.0500002 
11.125 21.875 -0.0500005 
5.5625 18.75 -0.0500002 
-33.375 12.5 -0.0499985 
-38.9375 9.375 -0.0499983 
-38.9375 12.5 -0.0499983 
-33.375 9.375 -0.0499985 
-33.375 6.25 -0.0499985 
-38.9375 3.125 -0.0499983 
-38.9375 6.25 -0.0499983 
-33.375 18.75 -0.0499985 
-33.375 15.625 -0.0499985 
-38.9375 15.625 -0.0499983 
-27.8125 18.75 -0.0499988 
-22.25 18.75 -0.049999 
-22.25 15.625 -0.049999 
-27.8125 15.625 -0.0499988 
-33.375 25 -0.0499985 
-38.9375 21.875 -0.0499983 
-38.9375 25 -0.0499983 
-33.375 21.875 -0.0499985 
-38.9375 18.75 -0.0499983 
-11.125 6.25 -0.0499995 
-11.125 3.125 -0.0499995 
-16.6875 3.125 -0.0499993 
-5.5625 6.25 -0.0499998 
2.7101e-07 6.25 -0.05 
1.34412e-07 3.125 -0.05 
-5.5625 3.125 -0.0499998 
-22.25 6.25 -0.049999 
-16.6875 6.25 -0.0499993 
-22.25 3.125 -0.049999 
-16.6875 9.375 -0.0499993 
-11.125 12.5 -0.0499995 
-5.5625 12.5 -0.0499998 
-11.125 9.375 -0.0499995 
-33.375 3.125 -0.0499985 
-27.8125 6.25 -0.0499988 
-27.8125 3.125 -0.0499988 
-33.375 -12.5 -0.0499985 
-38.9375 -15.625 -0.0499983 
-38.9375 -12.5 -0.0499983 
-33.375 -15.625 -0.0499985 
-33.375 -18.75 -0.0499985 
-38.9375 -18.75 -0.0499983 
-33.375 -6.25 -0.0499985 
-33.375 -9.375 -0.0499985 
-38.9375 -9.375 -0.0499983 
-27.8125 -6.25 -0.0499988 
-22.25 -6.25 -0.049999 
-22.25 -9.375 -0.049999 
-27.8125 -9.375 -0.0499988 
-33.375 1.45887e-06 -0.0499985 
-38.9375 -3.125 -0.0499983 
-38.9375 1.70201e-06 -0.0499983 
-33.375 -3.125 -0.0499985 
-38.9375 -6.25 -0.0499983 
33.375 -12.5 -0.0500015 
38.9375 -9.375 -0.0500017 
38.9375 -12.5 -0.0500017 
33.375 -9.375 -0.0500015 
33.375 -6.25 -0.0500015 
38.9375 -3.125 -0.0500017 
38.9375 -6.25 -0.0500017 
33.375 -18.75 -0.0500015 
33.375 -15.625 -0.0500015 
38.9375 -15.625 -0.0500017 
27.8125 -18.75 -0.0500012 
22.25 -18.75 -0.050001 
22.25 -15.625 -0.050001 
27.8125 -15.625 -0.0500012 
33.375 -25 -0.0500015 
38.9375 -21.875 -0.0500017 
38.9375 -25 -0.0500017 
33.375 -21.875 -0.0500015 
38.9375 -18.75 -0.0500017 
11.125 -6.25 -0.0500005 
11.125 -3.125 -0.0500005 
16.6875 -3.125 -0.0500007 
5.5625 -6.25 -0.0500002 
-2.75382e-07 -6.25 -0.05 
-1.38784e-07 -3.125 -0.05 
5.5625 -3.125 -0.0500002 
22.25 -6.25 -0.050001 
16.6875 -6.25 -0.0500007 
22.25 -3.125 -0.050001 
16.6875 -9.375 -0.0500007 
11.125 -12.5 -0.0500005 
5.5625 -12.5 -0.0500002 
11.125 -9.375 -0.0500005 
33.375 -3.125 -0.0500015 
27.8125 -6.25 -0.0500012 
27.8125 -3.125 -0.0500012 
33.375 12.5 -0.0500015 
38.9375 15.625 -0.0500017 
38.9375 12.5 -0.0500017 
33.375 15.625 -0.0500015 
33.375 18.75 -0.0500015 
38.9375 18.75 -0.0500017 
33.375 6.25 -0.0500015 
33.375 9.375 -0.0500015 
38.9375 9.375 -0.0500017 
27.8125 6.25 -0.0500012 
22.25 6.25 -0.050001 
22.25 9.375 -0.050001 
27.8125 9.375 -0.0500012 
33.375 -1.45887e-06 -0.0500015 
38.9375 3.125 -0.0500017 
38.9375 -1.70201e-06 -0.0500017 
33.375 3.125 -0.0500015 
38.9375 6.25 -0.0500017 
11.125 -4.86289e-07 -0.0500005 
16.6875 3.125 -0.0500007 
16.6875 -7.29434e-07 -0.0500007 
11.125 3.125 -0.0500005 
16.6875 6.25 -0.0500007 
11.125 -18.75 -0.0500005 
11.125 -15.625 -0.0500005 
16.6875 -15.625 -0.0500007 
5.5625 -18.75 -0.0500002 
-8.21775e-07 -18.75 -0.05 
-6.85176e-07 -15.625 -0.05 
5.5625 -15.625 -0.0500002 
11.125 -25 -0.0500005 
16.6875 -21.875 -0.0500007 
16.6875 -25 -0.0500007 
11.125 -21.875 -0.0500005 
16.6875 -18.75 -0.0500007 
-11.125 4.86289e-07 -0.0499995 
-16.6875 -3.125 -0.0499993 
-16.6875 7.29434e-07 -0.0499993 
-11.125 -3.125 -0.0499995 
-16.6875 -6.25 -0.0499993 
-11.125 18.75 -0.0499995 
-11.125 15.625 -0.0499995 
-16.6875 15.625 -0.0499993 
-5.5625 18.75 -0.0499998 
8.17403e-07 18.75 -0.05 
6.80804e-07 15.625 -0.05 
-5.5625 15.625 -0.0499998 
-11.125 25 -0.0499995 
-16.6875 21.875 -0.0499993 
-16.6875 25 -0.0499993 
-11.125 21.875 -0.0499995 
-16.6875 18.75 -0.0499993 
33.375 25 -0.0500015 
27.8125 21.875 -0.0500012 
27.8125 25 -0.0500012 
33.375 21.875 -0.0500015 
27.8125 18.75 -0.0500012 
-33.375 -25 -0.0499985 
-27.8125 -21.875 -0.0499988 
-27.8125 -25 -0.0499988 
-33.375 -21.875 -0.0499985 
-27.8125 -18.75 -0.0499988 
44.5 9.375 -0.0500019 
44.5 6.25 -0.0500019 
44.5 12.5 -0.0500019 
44.5 3.125 -0.0500019 
44.5 -1.94516e-06 -0.0500019 
44.5 21.875 -0.0500019 
44.5 18.75 -0.0500019 
44.5 15.625 -0.0500019 
44.5 -15.625 -0.0500019 
44.5 -18.75 -0.0500019 
44.5 -12.5 -0.0500019 
44.5 -21.875 -0.0500019 
44.5 -25 -0.0500019 
44.5 -3.125 -0.0500019 
44.5 -6.25 -0.0500019 
44.5 -9.375 -0.0500019 
-44.5 -9.375 -0.0499981 
-44.5 -6.25 -0.0499981 
-44.5 -12.5 -0.0499981 
-44.5 -3.125 -0.0499981 
-44.5 1.94516e-06 -0.0499981 
-44.5 -21.875 -0.0499981 
-44.5 -18.75 -0.0499981 
-44.5 -15.625 -0.0499981 
-44.5 15.625 -0.0499981 
-44.5 18.75 -0.0499981 
-44.5 12.5 -0.0499981 
-44.5 21.875 -0.0499981 
-44.5 25 -0.0499981 
-44.5 3.125 -0.0499981 
-44.5 6.25 -0.0499981 
-44.5 9.375 -0.0499981 
3 0 1 2 
3 3 4 5 
3 0 2 6 
3 7 8 0 
3 9 10 11 
3 12 7 0 
3 0 6 13 
3 14 15 16 
3 0 13 17 
3 18 12 0 
3 19 20 21 
3 22 18 0 
3 0 17 23 
3 16 24 19 
3 22 0 23 
3 16 19 21 
3 1 0 25 
3 26 27 28 
3 29 30 31 
3 26 28 32 
3 33 34 26 
3 35 36 37 
3 38 33 26 
3 26 32 39 
3 40 41 42 
3 26 39 43 
3 44 38 26 
3 45 46 47 
3 48 44 26 
3 26 43 49 
3 42 50 45 
3 51 48 26 
3 26 49 51 
3 27 26 52 
3 53 54 55 
3 56 54 53 
3 53 57 58 
3 59 60 61 
3 53 58 62 
3 63 56 53 
3 64 65 66 
3 67 63 53 
3 53 62 68 
3 69 70 71 
3 53 68 72 
3 73 67 53 
3 74 75 76 
3 77 73 53 
3 53 72 78 
3 79 77 53 
3 53 78 79 
3 80 81 82 
3 83 84 85 
3 86 87 88 
3 88 89 90 
3 91 92 93 
3 88 90 94 
3 95 86 88 
3 96 97 98 
3 99 95 88 
3 88 94 100 
3 101 102 103 
3 88 100 104 
3 105 99 88 
3 106 107 108 
3 109 105 88 
3 88 104 110 
3 111 109 88 
3 88 110 111 
3 88 87 112 
3 113 114 115 
3 114 113 116 
3 117 118 119 
3 117 120 118 
3 121 122 123 
3 124 125 126 
3 124 127 125 
3 121 128 129 
3 130 131 132 
3 130 133 131 
3 134 135 136 
3 137 138 139 
3 137 140 138 
3 141 142 143 
3 144 145 146 
3 144 147 145 
3 137 139 148 
3 149 150 151 
3 149 152 150 
3 153 154 155 
3 156 157 158 
3 156 159 157 
3 160 161 162 
3 163 164 165 
3 163 166 164 
3 156 158 167 
3 168 169 170 
3 168 171 169 
3 134 172 173 
3 174 175 176 
3 174 177 175 
3 153 178 179 
3 180 181 182 
3 180 183 181 
3 184 122 185 
3 186 187 188 
3 186 189 187 
3 190 191 192 
3 193 194 195 
3 193 196 194 
3 186 188 197 
3 198 199 200 
3 198 201 199 
3 202 128 203 
3 204 205 206 
3 204 207 205 
3 208 209 210 
3 211 212 213 
3 211 214 212 
3 204 206 215 
3 216 217 218 
3 216 219 217 
3 220 221 222 
3 223 224 225 
3 223 226 224 
3 227 228 229 
3 230 231 232 
3 230 233 231 
3 223 225 234 
3 235 236 237 
3 235 238 236 
3 239 240 241 
3 242 243 244 
3 242 245 243 
3 246 247 248 
3 220 249 221 
3 220 250 249 
3 242 244 251 
3 252 253 254 
3 252 255 253 
3 256 81 257 
3 258 259 260 
3 258 261 259 
3 262 263 264 
3 265 266 267 
3 265 268 266 
3 258 260 269 
3 270 271 272 
3 270 273 271 
3 274 275 276 
3 277 278 279 
3 277 280 278 
3 281 282 283 
3 284 285 286 
3 284 287 285 
3 277 279 288 
3 289 290 291 
3 289 292 290 
3 293 294 295 
3 296 297 298 
3 296 299 297 
3 300 301 302 
3 274 303 275 
3 274 304 303 
3 296 298 305 
3 306 307 308 
3 306 309 307 
3 310 84 311 
3 312 313 314 
3 312 315 313 
3 316 317 318 
3 319 320 321 
3 319 322 320 
3 312 314 323 
3 324 325 326 
3 324 327 325 
3 202 172 328 
3 329 330 331 
3 329 332 330 
3 333 334 335 
3 336 337 338 
3 336 339 337 
3 329 331 340 
3 341 342 343 
3 341 344 342 
3 184 178 345 
3 346 347 348 
3 346 349 347 
3 350 351 352 
3 353 354 355 
3 353 356 354 
3 346 348 357 
3 358 359 360 
3 358 361 359 
3 310 135 362 
3 363 364 365 
3 363 366 364 
3 256 154 367 
3 367 191 190 
3 367 154 191 
3 154 153 191 
3 364 367 190 
3 364 366 367 
3 366 256 367 
3 365 177 174 
3 365 364 177 
3 364 190 177 
3 362 209 208 
3 362 135 209 
3 135 134 209 
3 359 362 208 
3 359 361 362 
3 361 310 362 
3 360 171 168 
3 360 359 171 
3 359 208 171 
3 357 228 227 
3 357 348 228 
3 348 156 228 
3 354 357 227 
3 354 356 357 
3 356 346 357 
3 355 166 163 
3 355 354 166 
3 354 227 166 
3 352 247 246 
3 352 351 247 
3 351 160 247 
3 347 352 246 
3 347 349 352 
3 349 350 352 
3 348 159 156 
3 348 347 159 
3 347 246 159 
3 345 263 262 
3 345 178 263 
3 178 153 263 
3 342 345 262 
3 342 344 345 
3 344 184 345 
3 343 152 149 
3 343 342 152 
3 342 262 152 
3 340 282 281 
3 340 331 282 
3 331 137 282 
3 337 340 281 
3 337 339 340 
3 339 329 340 
3 338 147 144 
3 338 337 147 
3 337 281 147 
3 335 301 300 
3 335 334 301 
3 334 141 301 
3 330 335 300 
3 330 332 335 
3 332 333 335 
3 331 140 137 
3 331 330 140 
3 330 300 140 
3 328 317 316 
3 328 172 317 
3 172 134 317 
3 325 328 316 
3 325 327 328 
3 327 202 328 
3 326 133 130 
3 326 325 133 
3 325 316 133 
3 323 368 369 
3 323 314 368 
3 314 370 368 
3 320 323 369 
3 320 322 323 
3 322 312 323 
3 321 371 372 
3 321 320 371 
3 320 369 371 
3 318 136 306 
3 318 317 136 
3 317 134 136 
3 313 318 306 
3 313 315 318 
3 315 316 318 
3 314 308 370 
3 314 313 308 
3 313 306 308 
3 311 373 374 
3 311 84 373 
3 84 83 373 
3 307 311 374 
3 307 309 311 
3 309 310 311 
3 308 375 370 
3 308 307 375 
3 307 374 375 
3 305 132 319 
3 305 298 132 
3 298 130 132 
3 303 305 319 
3 303 304 305 
3 304 296 305 
3 275 321 372 
3 275 303 321 
3 303 319 321 
3 302 143 289 
3 302 301 143 
3 301 141 143 
3 297 302 289 
3 297 299 302 
3 299 300 302 
3 298 291 130 
3 298 297 291 
3 297 289 291 
3 295 129 324 
3 295 294 129 
3 294 121 129 
3 290 295 324 
3 290 292 295 
3 292 293 295 
3 291 326 130 
3 291 290 326 
3 290 324 326 
3 288 376 377 
3 288 279 376 
3 279 378 376 
3 285 288 377 
3 285 287 288 
3 287 277 288 
3 286 379 380 
3 286 285 379 
3 285 377 379 
3 283 148 270 
3 283 282 148 
3 282 137 148 
3 278 283 270 
3 278 280 283 
3 280 281 283 
3 279 272 378 
3 279 278 272 
3 278 270 272 
3 276 381 382 
3 276 275 381 
3 275 372 381 
3 271 276 382 
3 271 273 276 
3 273 274 276 
3 272 383 378 
3 272 271 383 
3 271 382 383 
3 269 384 385 
3 269 260 384 
3 260 386 384 
3 266 269 385 
3 266 268 269 
3 268 258 269 
3 267 387 388 
3 267 266 387 
3 266 385 387 
3 264 155 252 
3 264 263 155 
3 263 153 155 
3 259 264 252 
3 259 261 264 
3 261 262 264 
3 260 254 386 
3 260 259 254 
3 259 252 254 
3 257 389 390 
3 257 81 389 
3 81 80 389 
3 253 257 390 
3 253 255 257 
3 255 256 257 
3 254 391 386 
3 254 253 391 
3 253 390 391 
3 251 151 265 
3 251 244 151 
3 244 149 151 
3 249 251 265 
3 249 250 251 
3 250 242 251 
3 221 267 388 
3 221 249 267 
3 249 265 267 
3 248 162 235 
3 248 247 162 
3 247 160 162 
3 243 248 235 
3 243 245 248 
3 245 246 248 
3 244 237 149 
3 244 243 237 
3 243 235 237 
3 241 123 341 
3 241 240 123 
3 240 121 123 
3 236 241 341 
3 236 238 241 
3 238 239 241 
3 237 343 149 
3 237 236 343 
3 236 341 343 
3 234 392 393 
3 234 225 392 
3 225 394 392 
3 231 234 393 
3 231 233 234 
3 233 223 234 
3 232 395 396 
3 232 231 395 
3 231 393 395 
3 229 167 216 
3 229 228 167 
3 228 156 167 
3 224 229 216 
3 224 226 229 
3 226 227 229 
3 225 218 394 
3 225 224 218 
3 224 216 218 
3 222 397 398 
3 222 221 397 
3 221 388 397 
3 217 222 398 
3 217 219 222 
3 219 220 222 
3 218 399 394 
3 218 217 399 
3 217 398 399 
3 215 351 350 
3 215 206 351 
3 206 160 351 
3 212 215 350 
3 212 214 215 
3 214 204 215 
3 213 120 117 
3 213 212 120 
3 212 350 120 
3 210 173 198 
3 210 209 173 
3 209 134 173 
3 205 210 198 
3 205 207 210 
3 207 208 210 
3 206 200 160 
3 206 205 200 
3 205 198 200 
3 203 240 239 
3 203 128 240 
3 128 121 240 
3 199 203 239 
3 199 201 203 
3 201 202 203 
3 200 161 160 
3 200 199 161 
3 199 239 161 
3 197 334 333 
3 197 188 334 
3 188 141 334 
3 194 197 333 
3 194 196 197 
3 196 186 197 
3 195 127 124 
3 195 194 127 
3 194 333 127 
3 192 179 180 
3 192 191 179 
3 191 153 179 
3 187 192 180 
3 187 189 192 
3 189 190 192 
3 188 182 141 
3 188 187 182 
3 187 180 182 
3 185 294 293 
3 185 122 294 
3 122 121 294 
3 181 185 293 
3 181 183 185 
3 183 184 185 
3 182 142 141 
3 182 181 142 
3 181 293 142 
3 179 183 180 
3 179 178 183 
3 178 184 183 
3 175 189 186 
3 175 177 189 
3 177 190 189 
3 176 196 193 
3 176 175 196 
3 175 186 196 
3 173 201 198 
3 173 172 201 
3 172 202 201 
3 169 207 204 
3 169 171 207 
3 171 208 207 
3 170 214 211 
3 170 169 214 
3 169 204 214 
3 167 219 216 
3 167 158 219 
3 158 220 219 
3 164 226 223 
3 164 166 226 
3 166 227 226 
3 165 233 230 
3 165 164 233 
3 164 223 233 
3 162 238 235 
3 162 161 238 
3 161 239 238 
3 157 245 242 
3 157 159 245 
3 159 246 245 
3 158 250 220 
3 158 157 250 
3 157 242 250 
3 155 255 252 
3 155 154 255 
3 154 256 255 
3 150 261 258 
3 150 152 261 
3 152 262 261 
3 151 268 265 
3 151 150 268 
3 150 258 268 
3 148 273 270 
3 148 139 273 
3 139 274 273 
3 145 280 277 
3 145 147 280 
3 147 281 280 
3 146 287 284 
3 146 145 287 
3 145 277 287 
3 143 292 289 
3 143 142 292 
3 142 293 292 
3 138 299 296 
3 138 140 299 
3 140 300 299 
3 139 304 274 
3 139 138 304 
3 138 296 304 
3 136 309 306 
3 136 135 309 
3 135 310 309 
3 131 315 312 
3 131 133 315 
3 133 316 315 
3 132 322 319 
3 132 131 322 
3 131 312 322 
3 129 327 324 
3 129 128 327 
3 128 202 327 
3 125 332 329 
3 125 127 332 
3 127 333 332 
3 126 339 336 
3 126 125 339 
3 125 329 339 
3 123 344 341 
3 123 122 344 
3 122 184 344 
3 118 349 346 
3 118 120 349 
3 120 350 349 
3 119 356 353 
3 119 118 356 
3 118 346 356 
3 85 361 358 
3 85 84 361 
3 84 310 361 
3 82 366 363 
3 82 81 366 
3 81 256 366 
